X Lossless Decoder version 20110502 (132.0)

XLD extraction logfile from 2011-05-04 00:29:57 +0900

Towa Tei / Sound Museum (Disk2)

Used drive : MATSHITA DVD-R   UJ-868 (revision KB19)

Ripper mode             : CDParanoia III 10.2
Disable audio cache     : OK for the drive with a cache less than 2750KiB
Make use of C2 pointers : NO
Read offset correction  : 102
Max retry count         : 100
Gap status              : Analyzed, Appended

TOC of the extracted CD
     Track |   Start  |  Length  | Start sector | End sector 
    ---------------------------------------------------------
        1  | 00:00:00 | 03:10:70 |         0    |    14319   
        2  | 03:10:70 | 04:28:30 |     14320    |    34449   
        3  | 10:11:25 | 17:10:00 |     45850    |   123099   

AccurateRip Summary
    Track 01 : OK (confidence 2)
    Track 02 : OK (confidence 2)
        ->All tracks accurately ripped.

All Tracks
    Filename : /Users/m4c/Public/flac/Sound Museum (Disk2).flac
    CRC32 hash             : F9F1E680
    CRC32 hash (skip zero) : 0D8F3E51
    Statistics
        Read error                           : 0
        Skipped (treated as error)           : 0
        Edge jitter error (maybe fixed)      : 0
        Atom jitter error (maybe fixed)      : 0
        Drift error (maybe fixed)            : 0
        Dropped bytes error (maybe fixed)    : 0
        Duplicated bytes error (maybe fixed) : 0

Track 01
    Pre-gap length : 00:02:00

    CRC32 hash             : CC335EC8
    CRC32 hash (skip zero) : D615ECAC
    AccurateRip signature  : DC0AEC79
        ->Accurately ripped! (confidence 2)
    Statistics
        Read error                           : 0
        Skipped (treated as error)           : 0
        Edge jitter error (maybe fixed)      : 0
        Atom jitter error (maybe fixed)      : 0
        Drift error (maybe fixed)            : 0
        Dropped bytes error (maybe fixed)    : 0
        Duplicated bytes error (maybe fixed) : 0

Track 02

    CRC32 hash             : A77AA887
    CRC32 hash (skip zero) : B16BFE6B
    AccurateRip signature  : FBB0BB23
        ->Accurately ripped! (confidence 2)
    Statistics
        Read error                           : 0
        Skipped (treated as error)           : 0
        Edge jitter error (maybe fixed)      : 0
        Atom jitter error (maybe fixed)      : 0
        Drift error (maybe fixed)            : 0
        Dropped bytes error (maybe fixed)    : 0
        Duplicated bytes error (maybe fixed) : 0

No errors occurred

End of status report
